<?xml version="1.0" standalone="no"?>
<!DOCTYPE svg PUBLIC "-//W3C//DTD SVG 20010904//EN"
 "http://www.w3.org/TR/2001/REC-SVG-20010904/DTD/svg10.dtd">
<svg version="1.0" xmlns="http://www.w3.org/2000/svg"
 width="200.000000pt" height="200.000000pt" viewBox="0 0 200.000000 200.000000"
 preserveAspectRatio="xMidYMid meet">

<g transform="translate(0.000000,200.000000) scale(0.100000,-0.100000)"
fill="#000000" stroke="none">
<path d="M800 1770 c-293 -79 -514 -309 -575 -598 -22 -101 -19 -272 5 -368
76 -295 307 -518 603 -581 89 -18 294 -13 382 11 198 53 404 224 498 411 58
116 72 187 72 360 -1 144 -3 167 -27 237 -82 247 -277 439 -523 518 -103 33
-330 38 -435 10z m-48 -1013 c234 -154 462 -193 676 -117 111 40 132 45 132
31 0 -16 -131 -98 -237 -147 -271 -126 -488 -155 -591 -77 -69 52 -162 298
-132 352 18 34 49 25 152 -42z"/>
</g>
</svg>
