<?xml version="1.0" standalone="no"?>
<!DOCTYPE svg PUBLIC "-//W3C//DTD SVG 20010904//EN"
 "http://www.w3.org/TR/2001/REC-SVG-20010904/DTD/svg10.dtd">
<svg version="1.0" xmlns="http://www.w3.org/2000/svg"
 width="20.000000pt" height="20.000000pt" viewBox="0 0 20.000000 20.000000"
 preserveAspectRatio="xMidYMid meet">

<g transform="translate(0.000000,20.000000) scale(0.100000,-0.100000)"
fill="#000000" stroke="none">
<path d="M63 168 c-12 -6 -27 -24 -34 -41 -15 -36 1 -73 42 -96 22 -12 31 -12
57 -2 61 25 65 113 6 140 -30 13 -42 13 -71 -1z m42 -102 c40 -14 40 -14 13
-21 -34 -9 -58 -1 -58 20 0 8 1 15 3 15 1 0 20 -7 42 -14z"/>
</g>
</svg>
